<?xml version="1.0" encoding="UTF-8"?>
<svg width="128px" height="128px" viewBox="0 0 128 128" version="1.1" xmlns="http://www.w3.org/2000/svg" xmlns:xlink="http://www.w3.org/1999/xlink">
    <!-- Generator: Sketch 54.1 (76490) - https://sketchapp.com -->
    <title>favicon</title>
    <desc>Created with Sketch.</desc>
    <g stroke="none" stroke-width="1" fill="none" fill-rule="evenodd">
        <rect fill="#94A3B8" x="0" y="0" width="128" height="128"></rect>
        <path d="M68.34017,17.0822558 L114.616059,98.0182233 C115.986706,100.415469 115.154484,103.46995 112.757238,104.840597 C112.001491,105.272703 111.146019,105.5 110.275462,105.5 L17.7236839,105.5 C14.9622602,105.5 12.7236839,103.261424 12.7236839,100.5 C12.7236839,99.6294428 12.950981,98.773971 13.3830867,98.0182233 L59.6589755,17.0822558 C61.0296229,14.6850101 64.0841038,13.8527878 66.4813495,15.2234352 C67.2556612,15.6661551 67.8974501,16.307944 68.34017,17.0822558 Z M60.2422606,70.5590805 C60.4506154,72.7120797 60.7978681,74.3152298 61.2840292,75.3685789 C61.7701904,76.421928 62.6383222,76.9485947 63.8884508,76.9485947 C65.1154289,76.9485947 65.9951358,76.4045654 66.527598,75.3164905 C67.0600601,74.2284156 67.4073129,72.6657783 67.5693666,70.6285317 L69.0625683,53.5088007 C69.224622,51.9345647 69.3056476,50.3835025 69.3056476,48.8555675 C69.3056476,46.2627082 68.96997,44.2775801 68.2986046,42.9001236 C67.6272393,41.5226671 66.2961038,40.8339492 64.3051582,40.8339492 C62.6614706,40.8339492 61.3361227,41.3721909 60.3290747,42.4486905 C59.3220266,43.5251901 58.8185102,45.0241644 58.8185102,46.9456584 C58.8185102,48.3578407 58.922686,50.684434 59.1310408,53.9255082 L60.2422606,70.5590805 Z M64.0968045,93.4085389 C65.4858363,93.4085389 66.7012209,92.9455352 67.7429947,92.019514 C68.7847685,91.0934929 69.3056476,89.8202328 69.3056476,88.1996958 C69.3056476,86.7643629 68.7905561,85.5431908 67.7603575,84.5361428 C66.7301589,83.5290948 65.4858293,83.0255783 64.0273533,83.0255783 C62.5688699,83.0255783 61.3361227,83.5290948 60.3290747,84.5361428 C59.3220266,85.5431908 58.8185102,86.7643629 58.8185102,88.1996958 C58.8185102,89.8433834 59.3451768,91.1224309 60.3985259,92.0368769 C61.451875,92.9513228 62.6846222,93.4085389 64.0968045,93.4085389 Z" fill="#475569"></path>
    </g>
</svg>
